<svg width="25" height="24" viewBox="0 0 25 24" fill="none" xmlns="http://www.w3.org/2000/svg">
<path d="M13.0401 15.7101C13.133 15.8038 13.2436 15.8782 13.3655 15.929C13.4873 15.9797 13.618 16.0059 13.7501 16.0059C13.8821 16.0059 14.0128 15.9797 14.1346 15.929C14.2565 15.8782 14.3671 15.8038 14.4601 15.7101L17.4601 12.7101C17.5538 12.6171 17.6282 12.5065 17.679 12.3846C17.7297 12.2628 17.7559 12.1321 17.7559 12.0001C17.7559 11.868 17.7297 11.7373 17.679 11.6155C17.6282 11.4936 17.5538 11.383 17.4601 11.2901L14.4601 8.29006C14.3671 8.19633 14.2565 8.12194 14.1346 8.07117C14.0128 8.0204 13.8821 7.99426 13.7501 7.99426C13.618 7.99426 13.4873 8.0204 13.3655 8.07117C13.2436 8.12194 13.133 8.19633 13.0401 8.29006C12.9463 8.38302 12.8719 8.49363 12.8212 8.61548C12.7704 8.73734 12.7443 8.86805 12.7443 9.00006C12.7443 9.13207 12.7704 9.26278 12.8212 9.38464C12.8719 9.5065 12.9463 9.6171 13.0401 9.71006L15.3401 12.0001L13.0401 14.2901C12.9463 14.383 12.8719 14.4936 12.8212 14.6155C12.7704 14.7373 12.7443 14.868 12.7443 15.0001C12.7443 15.1321 12.7704 15.2628 12.8212 15.3846C12.8719 15.5065 12.9463 15.6171 13.0401 15.7101ZM9.84006 12.0001L7.50006 14.2901C7.31176 14.4784 7.20597 14.7338 7.20597 15.0001C7.20597 15.2664 7.31176 15.5218 7.50006 15.7101C7.68836 15.8984 7.94376 16.0042 8.21006 16.0042C8.47636 16.0042 8.73176 15.8984 8.92006 15.7101L11.9201 12.7101C12.0138 12.6171 12.0882 12.5065 12.139 12.3846C12.1897 12.2628 12.2159 12.1321 12.2159 12.0001C12.2159 11.868 12.1897 11.7373 12.139 11.6155C12.0882 11.4936 12.0138 11.383 11.9201 11.2901L8.92006 8.29006C8.8271 8.19633 8.7165 8.12194 8.59464 8.07117C8.47278 8.0204 8.34207 7.99426 8.21006 7.99426C8.07805 7.99426 7.94734 8.0204 7.82549 8.07117C7.70363 8.12194 7.59302 8.19633 7.50006 8.29006C7.40633 8.38302 7.33194 8.49363 7.28117 8.61548C7.2304 8.73734 7.20426 8.86805 7.20426 9.00006C7.20426 9.13207 7.2304 9.26278 7.28117 9.38464C7.33194 9.5065 7.40633 9.6171 7.50006 9.71006L9.84006 12.0001Z" fill="#676E73"/>
<rect x="24" y="23.5" width="23" height="23" rx="7.5" transform="rotate(-180 24 23.5)" stroke="#E1E3E5"/>
</svg>
