<svg width="25" height="24" viewBox="0 0 25 24" fill="none" xmlns="http://www.w3.org/2000/svg">
<path d="M11.9599 8.28994C11.867 8.19621 11.7564 8.12182 11.6345 8.07105C11.5127 8.02028 11.382 7.99414 11.2499 7.99414C11.1179 7.99414 10.9872 8.02028 10.8654 8.07105C10.7435 8.12182 10.6329 8.19621 10.5399 8.28994L7.53994 11.2899C7.44621 11.3829 7.37182 11.4935 7.32105 11.6154C7.27028 11.7372 7.24414 11.8679 7.24414 11.9999C7.24414 12.132 7.27028 12.2627 7.32105 12.3845C7.37182 12.5064 7.44621 12.617 7.53994 12.7099L10.5399 15.7099C10.6329 15.8037 10.7435 15.8781 10.8654 15.9288C10.9872 15.9796 11.1179 16.0057 11.2499 16.0057C11.382 16.0057 11.5127 15.9796 11.6345 15.9288C11.7564 15.8781 11.867 15.8037 11.9599 15.7099C12.0537 15.617 12.1281 15.5064 12.1788 15.3845C12.2296 15.2627 12.2557 15.132 12.2557 14.9999C12.2557 14.8679 12.2296 14.7372 12.1788 14.6154C12.1281 14.4935 12.0537 14.3829 11.9599 14.2899L9.65994 11.9999L11.9599 9.70994C12.0537 9.61698 12.1281 9.50638 12.1788 9.38452C12.2296 9.26266 12.2557 9.13195 12.2557 8.99994C12.2557 8.86793 12.2296 8.73722 12.1788 8.61536C12.1281 8.4935 12.0537 8.3829 11.9599 8.28994ZM15.1599 11.9999L17.4999 9.70994C17.6882 9.52164 17.794 9.26624 17.794 8.99994C17.794 8.73364 17.6882 8.47824 17.4999 8.28994C17.3116 8.10164 17.0562 7.99585 16.7899 7.99585C16.5236 7.99585 16.2682 8.10164 16.0799 8.28994L13.0799 11.2899C12.9862 11.3829 12.9118 11.4935 12.861 11.6154C12.8103 11.7372 12.7841 11.8679 12.7841 11.9999C12.7841 12.132 12.8103 12.2627 12.861 12.3845C12.9118 12.5064 12.9862 12.617 13.0799 12.7099L16.0799 15.7099C16.1729 15.8037 16.2835 15.8781 16.4054 15.9288C16.5272 15.9796 16.6579 16.0057 16.7899 16.0057C16.922 16.0057 17.0527 15.9796 17.1745 15.9288C17.2964 15.8781 17.407 15.8037 17.4999 15.7099C17.5937 15.617 17.6681 15.5064 17.7188 15.3845C17.7696 15.2627 17.7957 15.132 17.7957 14.9999C17.7957 14.8679 17.7696 14.7372 17.7188 14.6154C17.6681 14.4935 17.5937 14.3829 17.4999 14.2899L15.1599 11.9999Z" fill="#676E73"/>
<rect x="1" y="0.5" width="23" height="23" rx="7.5" stroke="#E1E3E5"/>
</svg>
