<svg width="25" height="24" viewBox="0 0 25 24" fill="none" xmlns="http://www.w3.org/2000/svg">
<path d="M11.7899 12.0002L15.3299 8.46019C15.5162 8.27283 15.6207 8.01938 15.6207 7.75519C15.6207 7.49101 15.5162 7.23756 15.3299 7.05019C15.237 6.95646 15.1264 6.88207 15.0045 6.8313C14.8827 6.78053 14.752 6.75439 14.6199 6.75439C14.4879 6.75439 14.3572 6.78053 14.2354 6.8313C14.1135 6.88207 14.0029 6.95646 13.9099 7.05019L9.66994 11.2902C9.57622 11.3832 9.50182 11.4938 9.45105 11.6156C9.40028 11.7375 9.37415 11.8682 9.37415 12.0002C9.37415 12.1322 9.40028 12.2629 9.45105 12.3848C9.50182 12.5066 9.57622 12.6172 9.66994 12.7102L13.9099 17.0002C14.0034 17.0929 14.1142 17.1662 14.236 17.216C14.3579 17.2657 14.4883 17.291 14.6199 17.2902C14.7516 17.291 14.882 17.2657 15.0038 17.216C15.1257 17.1662 15.2365 17.0929 15.3299 17.0002C15.5162 16.8128 15.6207 16.5594 15.6207 16.2952C15.6207 16.031 15.5162 15.7776 15.3299 15.5902L11.7899 12.0002Z" fill="#676E73"/>
<rect x="1" y="0.5" width="23" height="23" rx="7.5" stroke="#E1E3E5"/>
</svg>
