<svg width="25" height="24" viewBox="0 0 25 24" fill="none" xmlns="http://www.w3.org/2000/svg">
<path d="M15.3299 11.2902L11.0899 7.05019C10.997 6.95646 10.8864 6.88207 10.7645 6.8313C10.6427 6.78053 10.512 6.75439 10.3799 6.75439C10.2479 6.75439 10.1172 6.78053 9.99537 6.8313C9.87351 6.88207 9.76291 6.95646 9.66994 7.05019C9.48369 7.23756 9.37915 7.49101 9.37915 7.75519C9.37915 8.01938 9.48369 8.27283 9.66994 8.46019L13.2099 12.0002L9.66994 15.5402C9.48369 15.7276 9.37915 15.981 9.37915 16.2452C9.37915 16.5094 9.48369 16.7628 9.66994 16.9502C9.76338 17.0429 9.8742 17.1162 9.99604 17.166C10.1179 17.2157 10.2483 17.241 10.3799 17.2402C10.5115 17.241 10.642 17.2157 10.7638 17.166C10.8857 17.1162 10.9965 17.0429 11.0899 16.9502L15.3299 12.7102C15.4237 12.6172 15.4981 12.5066 15.5488 12.3848C15.5996 12.2629 15.6257 12.1322 15.6257 12.0002C15.6257 11.8682 15.5996 11.7375 15.5488 11.6156C15.4981 11.4938 15.4237 11.3832 15.3299 11.2902Z" fill="#676E73"/>
<rect x="1" y="0.5" width="23" height="23" rx="7.5" stroke="#E1E3E5"/>
</svg>
